<svg xmlns="http://www.w3.org/2000/svg" width="92" height="24" fill="none" viewBox="0 0 92 24"><path fill="#0E9AF7" fill-rule="evenodd" d="M20.525.895c-.409-.41-.945-.62-1.59-.62-.644 0-1.183.21-1.604.617-.418.407-.629.919-.629 1.522v13.392L4.482 1.126C4.286.86 3.987.647 3.596.495a3.1 3.1 0 0 0-1.15-.22c-.69 0-1.276.223-1.742.662A2.18 2.18 0 0 0 0 2.58v19.282c0 .601.204 1.113.609 1.52.408.41.943.618 1.59.618.667 0 1.218-.208 1.639-.616.418-.407.63-.919.63-1.522V8.566l12.329 14.759q.269.335.832.511c.345.11.701.164 1.06.164.69 0 1.276-.223 1.741-.662a2.17 2.17 0 0 0 .704-1.641V2.414c0-.601-.204-1.112-.609-1.517z" clip-rule="evenodd"/><path fill="#062D46" fill-rule="evenodd" d="M44.68.895c-.41-.411-.944-.62-1.59-.62-.644 0-1.184.209-1.604.617-.419.407-.63.919-.63 1.522v13.392L28.637 1.126q-.298-.4-.888-.63a3.1 3.1 0 0 0-1.15-.22c-.69 0-1.274.223-1.741.662s-.704.992-.704 1.642v19.282c0 .601.204 1.113.609 1.519.408.41.943.619 1.59.619.667 0 1.218-.208 1.639-.616.418-.407.63-.92.63-1.522V8.566l12.33 14.758q.269.336.831.512c.345.11.702.164 1.061.164.69 0 1.275-.223 1.74-.663a2.17 2.17 0 0 0 .704-1.64V2.414c0-.601-.204-1.112-.608-1.517V.894ZM86.754 16.56c0 .98-.28 1.73-.83 2.227-.554.501-1.347.756-2.355.756h-5.973v-5.866h5.728c.987 0 1.828.189 2.499.562.617.344.93 1.124.93 2.32Zm-9.158-7.401v-4.63h5.451c.77 0 1.374.201 1.79.6s.627 1.02.627 1.848c0 .677-.224 1.196-.684 1.588a2.42 2.42 0 0 1-1.63.594zm13.061 3.516a7.2 7.2 0 0 0-2.578-1.99 5.26 5.26 0 0 0 1.725-1.634c.528-.812.796-1.757.796-2.808 0-4.135-2.33-6.232-6.926-6.232H74.89L72.465 0l-.005 21.635c0 .657.235 1.214.698 1.656.463.444 1.045.67 1.73.67h8.68c2.239 0 4.197-.546 5.82-1.621 1.66-1.098 2.502-3.043 2.502-5.78 0-1.572-.415-2.878-1.233-3.884zm-42.35-8.31v.287h7.927v17.044c0 .652.232 1.206.69 1.644s1.045.66 1.749.66c1.106 0 1.94-.54 2.477-1.604l.03-17.744h4.108c2.29 0 4.153-1.835 4.153-4.09V.277h-16.98c-2.29 0-4.154 1.835-4.154 4.09z" clip-rule="evenodd"/></svg>