<svg xmlns="http://www.w3.org/2000/svg" width="87" height="39" fill="none" viewBox="0 0 87 39"><g clip-path="url(#a)"><path fill="#062D46" fill-rule="evenodd" d="M75.074 32.324c.008 1.235.78 1.845 1.728 1.84 1.034-.007 1.713-.728 1.707-1.86a6.8 6.8 0 0 1-1.74.223 6.2 6.2 0 0 1-1.695-.203" clip-rule="evenodd"/><path fill="#0E9AF7" fill-rule="evenodd" d="M72.956 28h-.009l.025 4.44q.006 1.127.48 1.992a3.4 3.4 0 0 0 1.32 1.348c.565.323 1.362.481 2.085.478.724-.005 1.52-.172 2.087-.5a3.4 3.4 0 0 0 1.312-1.364q.465-.87.457-1.996l-.01-1.948a.8.8 0 0 0-.245-.59.84.84 0 0 0-.617-.233.78.78 0 0 0-.562.24.8.8 0 0 0-.237.592l.009 1.948a2.33 2.33 0 0 1-.274 1.16 1.97 1.97 0 0 1-.753.785c-.316.183-.81.276-1.176.278-.384.002-.897-.086-1.232-.265a2.06 2.06 0 0 1-.809-.775 2.2 2.2 0 0 1-.307-1.158l-.016-2.914A1.527 1.527 0 0 0 72.957 28Z" clip-rule="evenodd"/><path fill="#062D46" fill-rule="evenodd" d="m54.1 28.666-3.399.02a.69.69 0 0 0-.701.709l.033 6.044a.7.7 0 0 0 .206.507q.205.195.525.194a.7.7 0 0 0 .5-.204.67.67 0 0 0 .211-.505l-.013-2.37 2.192-.012a.7.7 0 0 0 .5-.2.62.62 0 0 0 .201-.456.65.65 0 0 0-.207-.492.7.7 0 0 0-.502-.189l-2.191.013-.01-1.706 2.662-.015a.7.7 0 0 0 .5-.2.62.62 0 0 0 .202-.457.65.65 0 0 0-.207-.492.7.7 0 0 0-.502-.189m5.184 4.569c.003.483-.133.89-.406 1.208-.273.32-.617.477-1.054.479s-.782-.15-1.055-.467q-.409-.476-.414-1.204c-.003-.483.134-.891.405-1.213a1.3 1.3 0 0 1 1.045-.485c.437-.002.783.153 1.06.473.276.319.417.726.419 1.209m.626-2.98a.674.674 0 0 0-.68.581 2.6 2.6 0 0 0-.663-.384 2.5 2.5 0 0 0-.968-.183c-.478.003-.92.134-1.315.39a2.65 2.65 0 0 0-.933 1.066 3.36 3.36 0 0 0-.333 1.533c.003.566.123 1.079.355 1.524.234.447.556.8.956 1.05.4.252.853.378 1.345.375q.506-.004.964-.226a2.4 2.4 0 0 0 .625-.431q.045.2.186.345a.66.66 0 0 0 .494.195.67.67 0 0 0 .497-.206.7.7 0 0 0 .194-.503l-.025-4.424a.7.7 0 0 0-.2-.506.68.68 0 0 0-.499-.195Zm5.665 4.22q-.15 0-.257.05-.102.044-.215.127-.106.076-.163.105-.237.12-.733.123a1.42 1.42 0 0 1-1.103-.469c-.288-.315-.436-.719-.439-1.202-.003-.503.139-.916.42-1.227.28-.31.676-.468 1.176-.471q.12 0 .316.039.196.04.29.085.091.05.185.124a.74.74 0 0 0 .519.184.5.5 0 0 0 .408-.2.7.7 0 0 0 .147-.445q-.004-.501-.585-.794c-.372-.187-.864-.28-1.463-.277a2.8 2.8 0 0 0-1.456.389q-.64.385-.997 1.062c-.235.448-.352.966-.35 1.54a3.3 3.3 0 0 0 .35 1.507c.231.451.56.808.978 1.063s.908.38 1.455.378a4 4 0 0 0 1.041-.139 2.3 2.3 0 0 0 .795-.366q.318-.241.316-.526a.68.68 0 0 0-.17-.473.6.6 0 0 0-.465-.187m4.031-2.992q.467 0 .838.295c.243.195.38.432.407.698l-2.589.02c.154-.677.594-1.008 1.344-1.013m1.333-.905a2.5 2.5 0 0 0-1.34-.38c-.477.003-.931.13-1.349.378-.419.248-.76.608-1.013 1.072-.253.462-.379 1.006-.376 1.614.003.546.128 1.043.372 1.478.245.437.595.783 1.041 1.03.445.246.973.37 1.567.366q.512-.003 1.015-.177c.333-.115.603-.258.801-.423q.316-.252.315-.567a.56.56 0 0 0-.178-.413c-.205-.202-.49-.233-.815-.068l-.194.122a1.7 1.7 0 0 1-.366.162q-.23.077-.647.08c-.36.001-.688-.11-.975-.331a1.5 1.5 0 0 1-.538-.845l3.367-.018a.73.73 0 0 0 .482-.175.6.6 0 0 0 .22-.461 2.8 2.8 0 0 0-.383-1.412c-.25-.432-.59-.78-1.006-1.032m13.274 4.19a1.31 1.31 0 0 1-1.06-.473c-.276-.319-.415-.725-.419-1.209-.003-.482.134-.889.406-1.207q.407-.475 1.054-.48c.43-.002.785.155 1.055.468.272.316.412.72.414 1.203.004.483-.133.892-.406 1.214a1.3 1.3 0 0 1-1.044.484m2.431-3.23a2.7 2.7 0 0 0-.955-1.05 2.45 2.45 0 0 0-1.345-.375 2.1 2.1 0 0 0-.971.249 2.4 2.4 0 0 0-.609.445.67.67 0 0 0-.19-.376.67.67 0 0 0-.498-.2q-.301.001-.497.205a.7.7 0 0 0-.194.504l.035 6.41a.674.674 0 0 0 .699.701q.3-.002.497-.206a.7.7 0 0 0 .194-.503l-.01-1.895q.271.23.644.4.458.206.976.204a2.4 2.4 0 0 0 1.314-.389 2.64 2.64 0 0 0 .933-1.067c.224-.45.337-.966.333-1.532a3.3 3.3 0 0 0-.356-1.525" clip-rule="evenodd"/><path fill="#0E9AF7" fill-rule="evenodd" d="M19.424.848c-.388-.39-.895-.586-1.505-.586s-1.12.197-1.518.583c-.396.385-.595.87-.595 1.44V14.96L4.24 1.066C4.056.814 3.773.614 3.403.47A3 3 0 0 0 2.315.262c-.653 0-1.208.21-1.65.627A2.06 2.06 0 0 0 0 2.442V20.69c0 .57.193 1.053.576 1.438.386.389.892.586 1.505.586.631 0 1.152-.197 1.55-.584.396-.385.597-.869.597-1.44V8.107l11.667 13.966q.256.317.788.485a3.3 3.3 0 0 0 1.003.155c.653 0 1.207-.211 1.648-.627.442-.415.666-.938.666-1.553V2.285c0-.569-.194-1.052-.576-1.436z" clip-rule="evenodd"/><path fill="#062D46" fill-rule="evenodd" d="M42.28.847C41.891.458 41.385.26 40.774.26c-.61 0-1.12.197-1.518.583-.396.385-.596.87-.596 1.44v12.674L27.098 1.065c-.187-.252-.47-.451-.84-.596a3 3 0 0 0-1.089-.208c-.653 0-1.206.211-1.648.627a2.06 2.06 0 0 0-.666 1.553v18.247c0 .57.194 1.054.576 1.438.387.389.893.586 1.505.586.631 0 1.153-.197 1.551-.583.396-.386.596-.87.596-1.44V8.105l11.669 13.967c.168.21.432.374.786.484a3.3 3.3 0 0 0 1.004.155c.652 0 1.206-.211 1.647-.627.442-.415.666-.938.666-1.553V2.285c0-.57-.193-1.053-.576-1.436V.846ZM82.094 15.67c0 .928-.264 1.637-.784 2.108-.526.474-1.276.715-2.23.715h-5.65v-5.55h5.42c.935 0 1.73.178 2.365.53.585.326.881 1.065.881 2.197ZM73.43 8.667V4.285h5.159c.729 0 1.3.191 1.694.569.393.376.592.965.592 1.748 0 .641-.211 1.133-.646 1.503a2.3 2.3 0 0 1-1.542.562zm12.36 3.328a6.8 6.8 0 0 0-2.44-1.883 5 5 0 0 0 1.633-1.547c.499-.768.753-1.662.753-2.657 0-3.913-2.205-5.897-6.554-5.897h-8.313L68.573 0l-.004 20.474c0 .622.222 1.149.66 1.567.438.42.989.634 1.637.634h8.215c2.118 0 3.971-.517 5.507-1.534 1.57-1.04 2.368-2.88 2.368-5.47 0-1.487-.393-2.723-1.167-3.675v-.001ZM45.712 4.13v.272h7.501v16.13c0 .617.22 1.14.654 1.556.433.414.989.624 1.655.624 1.046 0 1.835-.51 2.344-1.518l.028-16.792h3.888c2.167 0 3.93-1.736 3.93-3.87v-.27h-16.07c-2.167 0-3.93 1.736-3.93 3.87z" clip-rule="evenodd"/><path fill="#062D46" d="M40.244 32.063c-.494 0-.929.162-1.241.498v-1.913h-.907v5.198h.863v-.483c.305.357.755.532 1.285.532 1.132 0 1.966-.756 1.966-1.92 0-1.162-.834-1.912-1.966-1.912m-.102 3.083c-.653 0-1.154-.456-1.154-1.17 0-.715.501-1.17 1.154-1.17s1.147.455 1.147 1.17-.494 1.17-1.147 1.17m6.033-3.04-1.227 2.767-1.219-2.767h-.943l1.69 3.754-.065.148c-.174.37-.362.518-.682.518a1 1 0 0 1-.667-.26l-.363.645c.247.217.653.343 1.038.343.645 0 1.139-.259 1.494-1.106l1.814-4.043zm-43.97.014c-.53 0-.98.175-1.284.532v-.49H.06v5.1h.907v-1.815c.313.343.748.504 1.24.504 1.132 0 1.967-.756 1.967-1.919 0-1.156-.835-1.912-1.966-1.912zm-.101 3.082c-.653 0-1.154-.456-1.154-1.17 0-.715.5-1.17 1.154-1.17s1.146.455 1.146 1.17-.492 1.17-1.146 1.17m5.124.75c1.204 0 2.068-.8 2.068-1.92s-.864-1.912-2.068-1.912c-1.19 0-2.061.791-2.061 1.912s.87 1.92 2.06 1.92Zm0-.75c-.653 0-1.147-.456-1.147-1.17 0-.715.494-1.17 1.147-1.17.66 0 1.153.455 1.153 1.17s-.493 1.17-1.153 1.17m8.521-3.04-1.052 2.774-1.045-2.774h-.762l-1.067 2.76-1.023-2.76h-.856l1.422 3.74h.871l1.016-2.578 1.001 2.578h.871l1.43-3.74zm5.418 1.891c0-1.17-.827-1.933-1.959-1.933-1.153 0-2.002.798-2.002 1.912s.841 1.92 2.14 1.92c.668 0 1.212-.21 1.56-.61l-.486-.54c-.276.274-.617.407-1.052.407-.675 0-1.146-.35-1.255-.897h3.04c.007-.084.015-.189.015-.259Zm-1.959-1.233c.595 0 1.023.371 1.096.91h-2.199c.087-.546.516-.91 1.103-.91m4.148-.112v-.546h-.863v3.74h.907v-1.814c0-.764.435-1.156 1.124-1.156.066 0 .13.007.21.021v-.834c-.645 0-1.117.197-1.378.589m6.209 1.345c0-1.17-.828-1.933-1.96-1.933-1.153 0-2.002.798-2.002 1.912s.841 1.92 2.14 1.92c.668 0 1.212-.21 1.56-.61l-.486-.54c-.276.274-.616.407-1.052.407-.675 0-1.146-.35-1.255-.897h3.04c.007-.084.015-.189.015-.259m-1.96-1.233c.596 0 1.024.371 1.096.91h-2.198c.087-.546.515-.91 1.102-.91m6.173-2.116v1.92c-.305-.343-.748-.505-1.248-.505-1.125 0-1.96.75-1.96 1.913s.835 1.92 1.96 1.92c.53 0 .98-.176 1.284-.533v.483h.87v-5.198zm-1.14 4.498c-.653 0-1.153-.456-1.153-1.17 0-.715.5-1.17 1.154-1.17.652 0 1.153.455 1.153 1.17s-.5 1.17-1.154 1.17"/></g><defs><clipPath id="a"><path fill="#fff" d="M0 0h87v38.051H0z"/></clipPath></defs></svg>